Coordinates
version=1
nRows=17
nColumns=24
inDegrees=yes

Units are S.I. units (second, meters, Newtons, ...)
Angles are in degrees.

endheader
time	pelvis_tilt	pelvis_list	pelvis_rotation	pelvis_tx	pelvis_ty	pelvis_tz	hip_flexion_r	hip_adduction_r	hip_rotation_r	knee_angle_r	ankle_angle_r	subtalar_angle_r	mtp_angle_r	hip_flexion_l	hip_adduction_l	hip_rotation_l	knee_angle_l	ankle_angle_l	subtalar_angle_l	mtp_angle_l	lumbar_extension	lumbar_bending	lumbar_rotation
      0.40000000	      4.84733857	     -1.84608314	     -0.77673658	      0.60102241	      1.04560246	     -0.02160123	     20.01449679	     -2.90585404	     -6.95115358	    -54.91928824	      2.56781739	     -0.00000078	      0.00000000	     -7.60110260	      1.38007332	      0.20242580	     -3.41334272	      3.22513005	      0.00000241	      0.00000000	    -19.54607401	     -0.47065505	     -4.74725079
      0.41700000	      4.82583038	     -1.77884297	     -0.64252224	      0.59831192	      1.04465020	     -0.02291720	     20.47976876	     -3.02141595	     -7.39437218	    -50.00654431	      2.56335430	     -0.00000135	      0.00000000	     -9.07853666	      1.51539435	      0.38061266	     -2.42316731	      3.45761831	      0.00000244	      0.00000000	    -19.82171278	     -0.35549082	     -5.05839324
      0.43300000	      4.73069556	     -1.47956442	     -0.69142416	      0.59601248	      1.04301919	     -0.02304027	     20.79109168	     -3.31898625	     -7.93998317	    -44.62631268	      2.44823471	     -0.00000216	      0.00000000	    -10.52418382	      1.86925301	      0.37880172	     -1.38695858	      3.67197465	      0.00000240	      0.00000000	    -19.86296725	     -0.63903770	     -5.06962422
      0.45000000	      4.84885245	     -1.05126572	     -0.57617640	      0.59385117	      1.04124378	     -0.02325409	     20.59025294	     -3.74637060	     -8.73846856	    -38.77223183	      2.14920146	     -0.00000287	      0.00000000	    -12.10176396	      2.32351572	      0.57786384	     -0.55380442	      4.01388219	      0.00000245	      0.00000000	    -20.08833147	     -0.97428484	     -5.21332299
      0.46700000	      4.70359558	     -0.36544253	     -0.52334641	      0.59132811	      1.03860512	     -0.02329567	     20.54811392	     -4.29609311	     -9.41443864	    -32.63608955	      1.68616059	     -0.00000310	      0.00000000	    -13.27410489	      3.04191677	      0.79268988	      0.06714157	      4.41193958	      0.00000246	      0.00000000	    -20.03030621	     -1.64577610	     -5.39063225
      0.48300000	      4.64014944	     -0.08649917	     -0.08131276	      0.59002820	      1.03611051	     -0.02298377	     19.89067359	     -4.33377400	    -10.40881163	    -25.86252315	      1.08494572	     -0.00000285	      0.00000000	    -14.79060510	      3.16287791	      1.33769238	      1.05373355	      4.69198583	      0.00000234	      0.00000000	    -20.00472075	     -1.80109427	     -5.72288657
      0.50000000	      4.51938220	      0.34990625	     -0.07381538	      0.58903745	      1.03299949	     -0.02158987	     19.29345574	     -4.21894904	    -10.44643510	    -19.14791525	      0.53682726	     -0.00000223	      0.00000000	    -16.21913929	      3.51338664	      1.46226838	      1.88282742	      5.03830927	      0.00000253	      0.00000000	    -19.86230403	     -2.31114754	     -5.53546503
      0.51700000	      4.39608072	      0.92478269	      0.03089725	      0.58776431	      1.02937307	     -0.02082148	     18.74262221	     -4.28162531	     -9.86324272	    -12.84557268	      0.19312537	     -0.00000130	      0.00000000	    -17.52826256	      4.00160622	      1.77591749	      2.49109163	      5.46549219	      0.00000256	      0.00000000	    -19.76955492	     -2.78263810	     -5.74073946
      0.53300000	      4.25776641	      1.51182766	      0.35107913	      0.58679399	      1.02539242	     -0.02031903	     18.19435902	     -4.50435427	     -8.92552140	     -7.21267766	      0.16286597	     -0.00000041	      0.00000000	    -18.73749028	      4.41566137	      2.36320682	      2.88512462	      5.99267342	      0.00000252	      0.00000000	    -19.62008449	     -3.19866385	     -5.91582985
      0.55000000	      4.18453192	      2.12417842	      0.27675918	      0.58634772	      1.02134037	     -0.01944311	     17.72372803	     -4.77617319	     -7.36683919	     -2.56809749	      0.37819979	      0.00000025	      0.00000000	    -20.02542325	      4.96716849	      2.60457858	      3.20960533	      6.49346520	      0.00000265	      0.00000000	    -19.51078362	     -3.63167014	     -5.98850540
      0.56700000	      4.13488182	      2.58915088	      0.26155918	      0.58550996	      1.01740491	     -0.01872249	     17.61988135	     -5.06005090	     -5.88921458	      0.38936623	      0.88050447	      0.00000050	      0.00000000	    -21.15480370	      5.33929979	      2.94138353	      3.20091721	      7.10409934	      0.00000282	      0.00000000	    -19.46260307	     -3.89227160	     -5.85567558
      0.58300000	      3.99452895	      2.94500504	      0.93203932	      0.58395725	      1.01397422	     -0.01856837	     17.75937639	     -5.47661013	     -5.50835735	      1.88191796	      1.20355908	      0.00000086	      0.00000000	    -21.77348303	      5.33268444	      3.89179699	      2.45120273	      7.93390016	      0.00000293	      0.00000000	    -19.57196607	     -3.76310518	     -6.30284959
      0.60000000	      4.00018092	      2.98654742	      0.96971006	      0.58464298	      1.01131824	     -0.01669118	     17.97101841	     -5.33698839	     -4.96556805	      1.81540086	      1.38311573	      0.00000070	      0.00000000	    -22.69255466	      5.14671516	      4.12626524	      1.77005978	      8.54647426	      0.00000316	      0.00000000	    -19.44093309	     -3.57444744	     -6.05777508
      0.61700000	      3.91048111	      2.76715165	      1.22871018	      0.58528076	      1.00910080	     -0.01431019	     18.60854889	     -4.96994137	     -5.00266916	      0.12211944	      1.12247878	      0.00000028	      0.00000000	    -23.21927086	      4.57857809	      4.43096603	      0.57996396	      9.26149464	      0.00000346	      0.00000000	    -19.35274492	     -3.08347720	     -6.10612646
      0.63300000	      3.87362712	      2.76144210	      1.74469245	      0.58627062	      1.00771761	     -0.01191120	     19.29542361	     -4.91420559	     -5.36287989	     -2.57100566	      0.46117349	     -0.00000025	      0.00000000	    -23.57823365	      4.10903029	      5.07401051	     -1.02349075	      9.79764854	      0.00000384	      0.00000000	    -19.32400942	     -2.76880462	     -6.38148464
      0.65000000	      3.74848948	      2.64627847	      2.20844825	      0.58780619	      1.00663650	     -0.00891493	     20.09200444	     -4.74336112	     -5.81691734	     -5.74068860	     -0.54781382	     -0.00000079	      0.00000000	    -23.75006444	      3.53817509	      5.68353612	     -2.80324644	     10.14218929	      0.00000433	      0.00000000	    -19.10835587	     -2.40227108	     -6.71853528
      0.66700000	      3.60880316	      2.64160208	      2.57191236	      0.58979653	      1.00627426	     -0.00642202	     20.79264644	     -4.73874328	     -6.08781343	     -8.92314747	     -1.64354842	     -0.00000125	      0.00000000	    -23.65603482	      3.20827666	      6.26873096	     -5.08701664	     10.22473940	      0.00000489	      0.00000000	    -18.84299102	     -1.95355243	     -6.85733023
